  0
SECTION
  2
HEADER
  9
$ACADVER
  1
AC1014
  9
$HANDSEED
  5
FFFF
  9
$MEASUREMENT
 70
     1
  0
ENDSEC
  0
SECTION
  2
TABLES
  0
TABLE
  2
VPORT
  5
8
330
0
100
AcDbSymbolTable
 70
     4
  0
VPORT
  5
2E
330
8
100
AcDbSymbolTableRecord
100
AcDbViewportTableRecord
  2
*ACTIVE
 70
     0
 10
0.0
 20
0.0
 11
1.0
 21
1.0
 12
210.0
 22
148.5
 13
0.0
 23
0.0
 14
10.0
 24
10.0
 15
10.0
 25
10.0
 16
0.0
 26
0.0
 36
1.0
 17
0.0
 27
0.0
 37
0.0
 40
341.0
 41
1.24
 42
50.0
 43
0.0
 44
0.0
 50
0.0
 51
0.0
 71
     0
 72
   100
 73
     1
 74
     3
 75
     0
 76
     0
 77
     0
 78
     0
  0
ENDTAB
  0
TABLE
  2
LTYPE
  5
5
330
0
100
AcDbSymbolTable
 70
     1
  0
LTYPE
  5
14
330
5
100
AcDbSymbolTableRecord
100
AcDbLinetypeTableRecord
  2
BYBLOCK
 70
     0
  3

 72
    65
 73
     0
 40
0.0
  0
LTYPE
  5
15
330
5
100
AcDbSymbolTableRecord
100
AcDbLinetypeTableRecord
  2
BYLAYER
 70
     0
  3

 72
    65
 73
     0
 40
0.0
  0
LTYPE
  5
16
330
5
100
AcDbSymbolTableRecord
100
AcDbLinetypeTableRecord
  2
CONTINUOUS
 70
     0
  3
Solid line
 72
    65
 73
     0
 40
0.0
  0
ENDTAB
  0
TABLE
  2
LAYER
  5
2
100
AcDbSymbolTable
 70
4
  0
LAYER
  5
50
100
AcDbSymbolTableRecord
100
AcDbLayerTableRecord
  2
0
 70
0
  6
CONTINUOUS
  0
LAYER
  5
51
100
AcDbSymbolTableRecord
100
AcDbLayerTableRecord
  2
Layer_1
 70
0
  6
CONTINUOUS
  0
LAYER
  5
52
100
AcDbSymbolTableRecord
100
AcDbLayerTableRecord
  2
Layer_3
 70
0
  6
CONTINUOUS
  0
LAYER
  5
53
100
AcDbSymbolTableRecord
100
AcDbLayerTableRecord
  2
Layer_2
 70
0
  6
CONTINUOUS
  0
ENDTAB
  0
TABLE
  2
STYLE
  5
3
330
0
100
AcDbSymbolTable
 70
     1
  0
STYLE
  5
11
330
3
100
AcDbSymbolTableRecord
100
AcDbTextStyleTableRecord
  2
STANDARD
 70
     0
 40
0.0
 41
1.0
 50
0.0
 71
     0
 42
2.5
  3
txt
  4

  0
ENDTAB
  0
TABLE
  2
VIEW
  5
6
330
0
100
AcDbSymbolTable
 70
     0
  0
ENDTAB
  0
TABLE
  2
UCS
  5
7
330
0
100
AcDbSymbolTable
 70
     0
  0
ENDTAB
  0
TABLE
  2
APPID
  5
9
330
0
100
AcDbSymbolTable
 70
     2
  0
APPID
  5
12
330
9
100
AcDbSymbolTableRecord
100
AcDbRegAppTableRecord
  2
ACAD
 70
     0
  0
ENDTAB
  0
TABLE
  2
DIMSTYLE
  5
A
330
0
100
AcDbSymbolTable
 70
     1
  0
DIMSTYLE
105
27
330
A
100
AcDbSymbolTableRecord
100
AcDbDimStyleTableRecord
  2
ISO-25
 70
     0
  3

  4

  5

  6

  7

 40
1.0
 41
2.5
 42
0.625
 43
3.75
 44
1.25
 45
0.0
 46
0.0
 47
0.0
 48
0.0
140
2.5
141
2.5
142
0.0
143
0.03937007874016
144
1.0
145
0.0
146
1.0
147
0.625
 71
     0
 72
     0
 73
     0
 74
     0
 75
     0
 76
     0
 77
     1
 78
     8
170
     0
171
     3
172
     1
173
     0
174
     0
175
     0
176
     0
177
     0
178
     0
270
     2
271
     2
272
     2
273
     2
274
     3
340
11
275
     0
280
     0
281
     0
282
     0
283
     0
284
     8
285
     0
286
     0
287
     3
288
     0
  0
ENDTAB
  0
TABLE
  2
BLOCK_RECORD
  5
1
330
0
100
AcDbSymbolTable
 70
     1
  0
BLOCK_RECORD
  5
1F
330
1
100
AcDbSymbolTableRecord
100
AcDbBlockTableRecord
  2
*MODEL_SPACE
  0
BLOCK_RECORD
  5
1B
330
1
100
AcDbSymbolTableRecord
100
AcDbBlockTableRecord
  2
*PAPER_SPACE
  0
ENDTAB
  0
ENDSEC
  0
SECTION
  2
BLOCKS
  0
BLOCK
  5
20
330
1F
100
AcDbEntity
  8
0
100
AcDbBlockBegin
  2
*MODEL_SPACE
 70
     0
 10
0.0
 20
0.0
 30
0.0
  3
*MODEL_SPACE
  1

  0
ENDBLK
  5
21
330
1F
100
AcDbEntity
  8
0
100
AcDbBlockEnd
  0
BLOCK
  5
1C
330
1B
100
AcDbEntity
 67
     1
  8
0
100
AcDbBlockBegin
  2
*PAPER_SPACE
  1

  0
ENDBLK
  5
1D
330
1B
100
AcDbEntity
 67
     1
  8
0
100
AcDbBlockEnd
  0
ENDSEC
  0
SECTION
  2
ENTITIES
  0
LWPOLYLINE
  5
100
100
AcDbEntity
  8
Layer_1
 62
5
100
AcDbPolyline
 90
2
 70
1
 10
10.694687
 20
293.129289
 30
0.0
 10
10.694687
 20
293.129289
 30
0.0
  0
SPLINE
  5
101
100
AcDbEntity
  8
Layer_1
 62
5
100
AcDbSpline
 70
0
 71
3
 72
19
 73
15
 74
13
 40
0.000000
 40
0.000000
 40
0.000000
 40
0.000000
 40
4.200699
 40
8.293435
 40
12.528337
 40
16.733109
 40
20.792991
 40
24.993085
 40
29.177008
 40
33.214792
 40
37.415201
 40
41.650104
 40
45.742839
 40
49.943538
 40
49.943538
 40
49.943538
 40
49.943538
 10
10.694687
 20
293.129289
 30
0.0
 10
12.111121
 20
292.905690
 30
0.0
 10
14.907585
 20
292.464238
 30
0.0
 10
17.972266
 20
289.231687
 30
0.0
 10
19.105966
 20
285.043777
 30
0.0
 10
17.971502
 20
280.813454
 30
0.0
 10
14.863167
 20
277.778381
 30
0.0
 10
10.668741
 20
276.679075
 30
0.0
 10
6.476682
 20
277.774407
 30
0.0
 10
3.399391
 20
280.823273
 30
0.0
 10
2.288015
 20
285.045406
 30
0.0
 10
3.416026
 20
289.231643
 30
0.0
 10
6.482066
 20
292.464249
 30
0.0
 10
9.278346
 20
292.905693
 30
0.0
 10
10.694687
 20
293.129289
 30
0.0
 11
10.694687
 21
293.129289
 31
0.0
 11
14.747028
 21
292.022761
 31
0.0
 11
17.627410
 21
289.115204
 31
0.0
 11
18.723594
 21
285.024632
 31
0.0
 11
17.619047
 21
280.967529
 31
0.0
 11
14.723134
 21
278.122123
 31
0.0
 11
10.662430
 21
277.049060
 31
0.0
 11
6.618453
 21
278.122123
 31
0.0
 11
3.753603
 21
280.967529
 31
0.0
 11
2.665782
 21
285.024632
 31
0.0
 11
3.761966
 21
289.115204
 31
0.0
 11
6.642347
 21
292.022761
 31
0.0
 11
10.694687
 21
293.129289
 31
0.0
  0
LWPOLYLINE
  5
102
100
AcDbEntity
  8
Layer_1
 62
5
100
AcDbPolyline
 90
13
 70
1
 10
10.857062
 20
290.963688
 30
0.0
 10
8.050453
 20
290.952286
 30
0.0
 10
8.050453
 20
289.309380
 30
0.0
 10
9.453784
 20
289.297978
 30
0.0
 10
9.989993
 20
287.928870
 30
0.0
 10
5.586095
 20
280.570073
 30
0.0
 10
7.822269
 20
280.570073
 30
0.0
 10
10.948346
 20
285.441731
 30
0.0
 10
12.967728
 20
280.113705
 30
0.0
 10
16.242148
 20
281.129118
 30
0.0
 10
15.694495
 20
282.817640
 30
0.0
 10
14.188490
 20
282.304263
 30
0.0
 10
10.857062
 20
290.963688
 30
0.0
  0
SPLINE
  5
103
100
AcDbEntity
  8
Layer_1
 62
7
100
AcDbSpline
 70
0
 71
3
 72
19
 73
15
 74
13
 40
0.000000
 40
0.000000
 40
0.000000
 40
0.000000
 40
0.866426
 40
1.707153
 40
2.573577
 40
3.440003
 40
4.280731
 40
5.147155
 40
6.013580
 40
6.854308
 40
7.720734
 40
8.587159
 40
9.427886
 40
10.294312
 40
10.294312
 40
10.294312
 40
10.294312
 10
20.357024
 20
293.178012
 30
0.0
 10
20.649142
 20
293.132466
 30
0.0
 10
21.224713
 20
293.042724
 30
0.0
 10
21.858369
 20
292.383009
 30
0.0
 10
22.093162
 20
291.522439
 30
0.0
 10
21.858369
 20
290.652833
 30
0.0
 10
21.224713
 20
290.019688
 30
0.0
 10
20.357024
 20
289.784721
 30
0.0
 10
19.489335
 20
290.019687
 30
0.0
 10
18.855678
 20
290.652833
 30
0.0
 10
18.620885
 20
291.522439
 30
0.0
 10
18.855678
 20
292.383009
 30
0.0
 10
19.489335
 20
293.042724
 30
0.0
 10
20.064906
 20
293.132466
 30
0.0
 10
20.357024
 20
293.178012
 30
0.0
 11
20.357024
 21
293.178012
 31
0.0
 11
21.193389
 21
292.951767
 31
0.0
 11
21.787873
 21
292.357283
 31
0.0
 11
22.014116
 21
291.520919
 31
0.0
 11
21.787873
 21
290.684553
 31
0.0
 11
21.193389
 21
290.090068
 31
0.0
 11
20.357024
 21
289.863825
 31
0.0
 11
19.520659
 21
290.090068
 31
0.0
 11
18.926175
 21
290.684553
 31
0.0
 11
18.699931
 21
291.520919
 31
0.0
 11
18.926174
 21
292.357283
 31
0.0
 11
19.520659
 21
292.951767
 31
0.0
 11
20.357024
 21
293.178012
 31
0.0
  0
SPLINE
  5
104
100
AcDbEntity
  8
Layer_1
 62
1
100
AcDbSpline
 70
0
 71
3
 72
13
 73
9
 74
7
 40
0.000000
 40
0.000000
 40
0.000000
 40
0.000000
 40
3.542706
 40
7.974280
 40
10.150246
 40
10.272162
 40
10.374166
 40
10.466253
 40
10.466253
 40
10.466253
 40
10.466253
 10
21.160872
 20
294.917844
 30
0.0
 10
19.979955
 20
294.916378
 30
0.0
 10
17.321827
 20
294.913077
 30
0.0
 10
13.938719
 20
294.887496
 30
0.0
 10
11.695053
 20
294.931203
 30
0.0
 10
10.895399
 20
294.905437
 30
0.0
 10
10.790048
 20
294.906510
 30
0.0
 10
10.725373
 20
294.908135
 30
0.0
 10
10.694687
 20
294.908906
 30
0.0
 11
21.160872
 21
294.917844
 31
0.0
 11
17.618174
 21
294.910130
 31
0.0
 11
13.186601
 21
294.908606
 31
0.0
 11
11.010635
 21
294.909039
 31
0.0
 11
10.888753
 21
294.906161
 31
0.0
 11
10.786751
 21
294.906811
 31
0.0
 11
10.694687
 21
294.908906
 31
0.0
  0
SPLINE
  5
105
100
AcDbEntity
  8
Layer_1
 62
1
100
AcDbSpline
 70
0
 71
3
 72
13
 73
9
 74
7
 40
0.000000
 40
0.000000
 40
0.000000
 40
0.000000
 40
5.149617
 40
10.154799
 40
15.321515
 40
20.447854
 40
25.398306
 40
30.537119
 40
30.537119
 40
30.537119
 40
30.537119
 10
10.694687
 20
294.908906
 30
0.0
 10
8.958399
 20
294.636653
 30
0.0
 10
5.534521
 20
294.099783
 30
0.0
 10
1.772097
 20
290.164117
 30
0.0
 10
0.381268
 20
285.040604
 30
0.0
 10
1.762220
 20
279.921137
 30
0.0
 10
5.558955
 20
276.069223
 30
0.0
 10
8.961602
 20
275.560732
 30
0.0
 10
10.694687
 20
275.301740
 30
0.0
 11
10.694687
 21
294.908906
 31
0.0
 11
5.725039
 21
293.559407
 31
0.0
 11
2.192645
 21
290.013418
 31
0.0
 11
0.848335
 21
285.024651
 31
0.0
 11
2.192645
 21
280.077715
 31
0.0
 11
5.725039
 21
276.609406
 31
0.0
 11
10.694687
 21
275.301740
 31
0.0
  0
LWPOLYLINE
  5
106
100
AcDbEntity
  8
Layer_1
 62
7
100
AcDbPolyline
 90
2
 70
1
 10
20.357024
 20
293.178012
 30
0.0
 10
20.357024
 20
293.178012
 30
0.0
  0
SPLINE
  5
107
100
AcDbEntity
  8
Layer_1
 62
1
100
AcDbSpline
 70
0
 71
3
 72
10
 73
6
 74
4
 40
0.000000
 40
0.000000
 40
0.000000
 40
0.000000
 40
4.152768
 40
8.188535
 40
12.325020
 40
12.325020
 40
12.325020
 40
12.325020
 10
10.694687
 20
275.301740
 30
0.0
 10
12.082742
 20
275.468140
 30
0.0
 10
14.819745
 20
275.796251
 30
0.0
 10
18.364500
 20
278.312529
 30
0.0
 10
19.508000
 20
280.822121
 30
0.0
 10
20.086796
 20
282.092382
 30
0.0
 11
10.694687
 21
275.301740
 31
0.0
 11
14.760622
 21
276.146523
 31
0.0
 11
18.041201
 21
278.497101
 31
0.0
 11
20.086796
 21
282.092382
 31
0.0
  0
LWPOLYLINE
  5
108
100
AcDbEntity
  8
Layer_1
 62
1
100
AcDbPolyline
 90
2
 70
1
 10
20.086796
 20
282.092382
 30
0.0
 10
20.103157
 20
282.135096
 30
0.0
  0
SPLINE
  5
109
100
AcDbEntity
  8
Layer_1
 62
1
100
AcDbSpline
 70
0
 71
3
 72
13
 73
9
 74
7
 40
0.000000
 40
0.000000
 40
0.000000
 40
0.000000
 40
1.765368
 40
5.709618
 40
9.804968
 40
11.257299
 40
13.089778
 40
15.053327
 40
15.053327
 40
15.053327
 40
15.053327
 10
20.103157
 20
282.135096
 30
0.0
 10
20.336287
 20
282.675890
 30
0.0
 10
21.090283
 20
284.424942
 30
0.0
 10
22.212856
 20
287.476035
 30
0.0
 10
23.981764
 20
290.241261
 30
0.0
 10
24.044403
 20
292.753551
 30
0.0
 10
23.097500
 20
294.439852
 30
0.0
 10
21.821104
 20
294.754902
 30
0.0
 10
21.160871
 20
294.917867
 30
0.0
 11
20.103157
 21
282.135096
 31
0.0
 11
20.792957
 21
283.760120
 31
0.0
 11
22.334627
 21
287.390596
 31
0.0
 11
23.936569
 21
291.159637
 31
0.0
 11
23.919875
 21
292.611873
 31
0.0
 11
22.983303
 21
294.186933
 31
0.0
 11
21.160871
 21
294.917867
 31
0.0
  0
LWPOLYLINE
  5
10a
100
AcDbEntity
  8
Layer_1
 62
1
100
AcDbPolyline
 90
2
 70
1
 10
21.160871
 20
294.917867
 30
0.0
 10
21.160872
 20
294.917844
 30
0.0
  0
ENDSEC
  0
SECTION
  2
OBJECTS
  0
DICTIONARY
  5
C
330
0
100
AcDbDictionary
  3
ACAD_GROUP
350
D
  3
ACAD_MLINESTYLE
350
17
  0
DICTIONARY
  5
D
330
C
100
AcDbDictionary
  0
DICTIONARY
  5
1A
330
C
100
AcDbDictionary
  0
DICTIONARY
  5
17
330
C
100
AcDbDictionary
  3
STANDARD
350
18
  0
DICTIONARY
  5
19
330
C
100
AcDbDictionary
  0
ENDSEC
  0
EOF
